<svg width="126" height="125" viewBox="0 0 126 125" fill="none" xmlns="http://www.w3.org/2000/svg">
<path d="M60.9272 45.0522C59.8855 46.0939 34.1042 72.1356 34.1042 88.8022C34.1042 106.511 48.6876 117.188 62.7501 117.188C76.8126 117.188 91.3959 106.511 91.3959 88.8022C91.3959 72.1356 65.6147 46.0939 64.573 45.0522C63.5313 44.0106 61.9688 44.0106 60.9272 45.0522Z" fill="#FFFF"/>
<path d="M106.24 8.59375C105.198 7.55208 103.375 7.55208 102.594 8.59375C100.771 10.4167 86.1875 25.7812 86.1875 36.1979C86.1875 47.6562 95.5625 54.6875 104.417 54.6875C113.271 54.6875 122.646 47.6562 122.646 36.1979C122.646 25.7812 108.062 10.4167 106.24 8.59375Z" fill="#FFFF"/>
<path d="M22.9063 8.59375C21.8647 7.55208 20.0417 7.55208 19.2605 8.59375C17.4376 10.4167 2.85425 25.7812 2.85425 36.1979C2.85425 47.6562 12.2292 54.6875 21.0834 54.6875C29.9376 54.6875 39.3126 47.6562 39.3126 36.1979C39.3126 25.7812 24.7292 10.4167 22.9063 8.59375Z" fill="#FFFF"/>
</svg>
