<svg width="49" height="48" viewBox="0 0 49 48" fill="none" xmlns="http://www.w3.org/2000/svg">
<path d="M31.2839 14.3628C30.4553 14.3628 29.7721 13.6651 29.7721 12.8511V10.0747C29.7721 9.24617 30.4553 8.56299 31.2839 8.56299C32.0979 8.56299 32.7811 9.24617 32.7811 10.0747V12.8511C32.7811 13.6651 32.0979 14.3628 31.2839 14.3628ZM22.3007 17.1973L20.3384 15.2204C19.7569 14.639 19.7424 13.6796 20.3238 13.0982C20.9053 12.5167 21.8792 12.5167 22.4606 13.0982L24.4229 15.0896C24.9898 15.6856 25.0044 16.6304 24.4375 17.2118C23.8706 17.7932 22.8967 17.7787 22.3007 17.1973ZM38.1302 17.2118C37.5633 16.6449 37.5488 15.671 38.1448 15.0896L40.1217 13.1272C40.7031 12.5313 41.6625 12.5313 42.2439 13.1127C42.8108 13.6941 42.8108 14.6535 42.2294 15.2349L40.267 17.1973C39.671 17.7787 38.6971 17.7932 38.1302 17.2118ZM35.412 30.2214C34.7579 25.817 31.3129 22.7064 26.7051 22.4011C26.2399 21.5144 25.6876 20.7731 25.0334 20.1335C26.2399 18.084 28.5947 16.6449 31.2984 16.6449C35.383 16.6449 38.6971 19.9446 38.6971 24.0437C38.6971 26.602 37.4035 28.8405 35.412 30.2214ZM42.4619 25.5409C41.6479 25.5409 40.9502 24.8722 40.9502 24.0582C40.9502 23.2297 41.6479 22.5465 42.4619 22.5465H45.2383C46.0668 22.5465 46.75 23.2297 46.75 24.0582C46.75 24.8722 46.0668 25.5409 45.2383 25.5409H42.4619ZM40.1071 34.9892L38.1448 33.0268C37.5633 32.4454 37.5488 31.486 38.1157 30.9046C38.6971 30.3231 39.6856 30.3231 40.2525 30.9046L42.2148 32.8815C42.7962 33.4774 42.8108 34.4223 42.2294 35.0037C41.6479 35.5851 40.7031 35.5851 40.1071 34.9892Z" fill="#FFFF"/>
<path d="M2.75 33.5936C2.75 37.0386 5.2647 39.4371 9.01495 39.4371H25.8475C30.0629 39.4371 33.2753 36.1956 33.2753 31.9511C33.2753 27.6049 29.9175 24.3779 25.3532 24.3779C23.7979 21.4417 20.8907 19.145 16.6608 19.145C11.6314 19.145 7.44508 22.9389 7.009 27.9247C4.45069 28.6369 2.75 30.8318 2.75 33.5936Z" fill="#FFFF"/>
</svg>
