<svg width="49" height="48" viewBox="0 0 49 48" fill="none" xmlns="http://www.w3.org/2000/svg">
<path d="M24.7432 42.1982C23.738 42.1982 23.0621 41.4529 23.0621 40.413V37.172L21.0169 38.5239C20.237 39.1305 19.3358 39.1132 18.7812 38.3159C18.3132 37.6226 18.4519 36.7214 19.2838 36.2014L23.0621 33.931V31.8859L23.478 26.2358L18.7638 29.4074L17.0133 30.4127L16.9093 34.8149C16.8747 35.8028 16.1641 36.3748 15.3322 36.3228C14.3616 36.2534 13.8763 35.4562 14.0323 34.4856L14.1883 32.0765L11.3806 33.671C10.462 34.191 9.50874 34.0003 9.00612 33.0991C8.48617 32.2325 8.78081 31.2619 9.68206 30.742L12.4724 29.1128L10.2887 28.0209C9.38742 27.6743 8.95413 26.877 9.37009 25.9931C9.73405 25.2305 10.5833 24.8839 11.4672 25.3518L15.3148 27.4836L17.0653 26.4784L22.1955 24L17.0653 21.5215L15.2975 20.5163L11.4672 22.6308C10.5833 23.0987 9.73405 22.7694 9.37009 22.0068C8.95413 21.1229 9.38742 20.3257 10.2887 19.9617L12.4724 18.8698L9.68206 17.258C8.78081 16.738 8.48617 15.8021 9.00612 14.9009C9.49141 14.0343 10.4793 13.809 11.3806 14.3116L14.1883 15.9234L14.0323 13.4797C13.8936 12.5438 14.3616 11.7292 15.3322 11.6772C16.1641 11.6079 16.8747 12.1798 16.9093 13.1677L16.996 17.5699L18.7638 18.5925L23.478 21.7815L23.0621 16.0967V14.0689L19.2838 11.7985C18.4519 11.2612 18.2959 10.3773 18.7812 9.66671C19.3358 8.86946 20.237 8.85212 21.0169 9.45873L23.0621 10.8106V7.58692C23.0621 6.52969 23.738 5.80176 24.7432 5.80176C25.7831 5.80176 26.4417 6.51235 26.4417 7.58692V10.8106L28.4695 9.45873C29.2495 8.85212 30.168 8.86946 30.7227 9.66671C31.1733 10.3773 31.052 11.2612 30.2027 11.7985L26.4417 14.0689V16.0967L26.0258 21.7642L30.74 18.5925L32.4905 17.5699L32.5945 13.1677C32.6291 12.1798 33.3397 11.6079 34.1716 11.6772C35.1422 11.7292 35.6275 12.5264 35.4715 13.497L35.3155 15.9234L38.1233 14.3116C39.0418 13.7916 40.0124 14.0343 40.4977 14.9009C41.0003 15.8021 40.7403 16.7207 39.8218 17.258L37.0314 18.8698L39.2152 19.9617C40.1164 20.3257 40.567 21.1403 40.1511 22.0068C39.7698 22.7694 38.9205 23.0987 38.0366 22.6308L34.189 20.499L32.4385 21.5215L27.3083 24L32.4212 26.4784L34.189 27.4836L38.0366 25.3692C38.9205 24.9185 39.7524 25.2305 40.1337 25.9931C40.5497 26.8597 40.0991 27.6743 39.2152 28.0209L37.0314 29.1128L39.8218 30.742C40.7057 31.2446 40.983 32.2152 40.4977 33.0991C39.9951 33.983 39.0418 34.2083 38.1233 33.671L35.3155 32.0592L35.4715 34.5029C35.6102 35.4562 35.1422 36.2534 34.1716 36.3228C33.3397 36.3921 32.6291 35.8201 32.5945 34.8149L32.4905 30.43L30.74 29.4248L26.0258 26.2531L26.4417 31.8859V33.931L30.2027 36.2014C31.052 36.7214 31.1906 37.6226 30.7227 38.3159C30.1507 39.1132 29.2495 39.1305 28.4695 38.5239L26.4417 37.1893V40.413C26.4417 41.4703 25.7831 42.1982 24.7432 42.1982Z" fill="#FFFF"/>
</svg>
