<svg width="50" height="49" viewBox="0 0 50 49" fill="none" xmlns="http://www.w3.org/2000/svg">
<path d="M24.75 12.1226C23.6062 12.1226 22.6501 11.1666 22.6501 10.0227V6.69364C22.6501 5.5498 23.6062 4.59375 24.75 4.59375C25.8938 4.59375 26.8499 5.5498 26.8499 6.69364V10.0227C26.8499 11.1666 25.8938 12.1226 24.75 12.1226ZM33.5081 15.8102C32.6886 15.0078 32.6886 13.625 33.4739 12.8396L35.847 10.4666C36.6323 9.66421 38.0151 9.64714 38.8005 10.4325C39.6029 11.2519 39.6199 12.6177 38.8346 13.4201L36.4786 15.7761C35.6592 16.5955 34.2934 16.5955 33.5081 15.8102ZM15.9749 15.8102C15.1895 16.5955 13.8238 16.5955 13.0214 15.7761L10.6654 13.403C9.88006 12.6177 9.89714 11.2519 10.6995 10.4325C11.5019 9.64714 12.8677 9.66421 13.6701 10.4666L16.0261 12.8396C16.8114 13.625 16.7943 15.0078 15.9749 15.8102ZM24.75 33.8044C19.5942 33.8044 15.4285 29.6387 15.4285 24.5C15.4285 19.3613 19.5942 15.1785 24.75 15.1785C29.8887 15.1785 34.0544 19.3613 34.0544 24.5C34.0544 29.6387 29.8887 33.8044 24.75 33.8044ZM37.1274 24.5C37.1274 23.3562 38.0834 22.4001 39.2273 22.4001H42.5564C43.7002 22.4001 44.6562 23.3562 44.6562 24.5C44.6562 25.6438 43.7002 26.5999 42.5564 26.5999H39.2273C38.0834 26.5999 37.1274 25.6438 37.1274 24.5ZM12.3726 24.5C12.3726 25.6438 11.4166 26.5999 10.2727 26.5999H6.94364C5.7998 26.5999 4.84375 25.6438 4.84375 24.5C4.84375 23.3562 5.7998 22.4001 6.94364 22.4001H10.2727C11.4166 22.4001 12.3726 23.3562 12.3726 24.5ZM33.4739 33.2239C34.2763 32.4215 35.6592 32.4045 36.4445 33.2069L38.8175 35.5628C39.637 36.3652 39.637 37.731 38.8517 38.5163C38.0322 39.3358 36.6664 39.3529 35.8811 38.5675L33.5081 36.1945C32.6886 35.375 32.6886 34.0263 33.4739 33.2239ZM16.0261 33.2239C16.7943 34.0263 16.7943 35.375 15.9749 36.1945L13.6189 38.5505C12.8165 39.3358 11.4507 39.3187 10.6312 38.5163C9.84592 37.7139 9.86299 36.3481 10.6654 35.5457L13.0384 33.2069C13.8238 32.4045 15.2066 32.4215 16.0261 33.2239ZM24.75 36.8603C25.8938 36.8603 26.8499 37.8164 26.8499 38.9602V42.3064C26.8499 43.4502 25.8938 44.4062 24.75 44.4062C23.6062 44.4062 22.6501 43.4502 22.6501 42.3064V38.9602C22.6501 37.8164 23.6062 36.8603 24.75 36.8603Z" fill="#FFFF"/>
</svg>
