<svg width="25" height="25" viewBox="0 0 25 25" fill="none" xmlns="http://www.w3.org/2000/svg">
<path d="M21.0867 5.30566C20.7351 5.30566 20.489 5.0127 20.5359 4.64941L20.6296 3.72363L19.8679 4.27441C19.5867 4.49707 19.2 4.43848 19.0359 4.14551C18.8484 3.84082 18.989 3.4541 19.3289 3.31348L20.196 2.93848L19.3289 2.5752C19.0007 2.43457 18.8601 2.07129 19.0359 1.75488C19.2 1.46191 19.5867 1.40332 19.8679 1.61426L20.6296 2.17676L20.5242 1.25098C20.4773 0.875977 20.7234 0.583008 21.0867 0.583008C21.45 0.583008 21.6843 0.887695 21.6375 1.25098L21.5203 2.17676L22.2703 1.62598C22.5515 1.3916 22.9617 1.46191 23.1257 1.75488C23.3015 2.07129 23.1609 2.42285 22.8328 2.56348L21.9656 2.9502L22.8093 3.31348C23.1609 3.44238 23.3015 3.84082 23.114 4.14551C22.9382 4.43848 22.5632 4.49707 22.282 4.27441L21.5085 3.71191L21.6257 4.64941C21.6843 5.0127 21.4382 5.30566 21.0867 5.30566ZM1.55151 10.2041C0.883545 10.4033 0.332764 10.0986 0.18042 9.53613C0.0163574 8.96191 0.309326 8.39941 0.93042 8.22363C2.78198 7.69629 4.75073 7.36816 6.66089 7.36816C8.86401 7.36816 10.5164 7.69629 12.4031 7.69629C13.3992 7.69629 14.032 7.12207 14.032 6.20801C14.032 5.30566 13.3992 4.73145 12.5554 4.73145C11.9695 4.73145 11.4304 5.10645 11.196 5.58691C10.8679 6.19629 10.2234 6.37207 9.70776 6.0791C9.19214 5.78613 9.07495 5.18848 9.3562 4.66113C9.9187 3.48926 11.1843 2.65723 12.5554 2.65723C14.5359 2.65723 16.0945 4.15723 16.0945 6.20801C16.0945 8.23535 14.6062 9.77051 12.4031 9.77051C10.364 9.77051 8.77026 9.44238 6.66089 9.44238C4.98511 9.44238 3.23901 9.7002 1.55151 10.2041ZM20.0203 16.0518C15.9539 16.0518 12.4148 14.0244 7.79761 14.0244C5.53589 14.0244 3.53198 14.3291 1.56323 15.0205C0.906982 15.2549 0.344482 14.9385 0.18042 14.3643C0.0163574 13.8018 0.309326 13.2627 0.93042 13.0518C3.09839 12.3252 5.36011 11.9502 7.79761 11.9502C12.5203 11.9502 16.4695 13.9775 20.0203 13.9775C21.7312 13.9775 22.8562 13.0283 22.8562 11.6221C22.8562 10.251 21.8367 9.29004 20.5242 9.29004C19.5046 9.29004 18.5906 9.96973 18.3445 10.9658C18.1453 11.6338 17.5593 11.9385 16.9851 11.7627C16.446 11.5986 16.1765 11.0361 16.3523 10.4385C16.821 8.5752 18.4968 7.21582 20.5242 7.21582C22.9968 7.21582 24.9304 9.09082 24.9304 11.6221C24.9304 14.1885 22.8679 16.0518 20.0203 16.0518ZM12.4148 24.6182C10.7507 24.6182 9.47339 23.5049 9.06323 22.0049C8.85229 21.3955 9.08667 20.7744 9.69604 20.5986C10.282 20.4346 10.8093 20.751 11.0085 21.3135C11.2195 22.0869 11.7 22.5557 12.4148 22.5557C13.2117 22.5557 13.821 22.0049 13.821 21.1025C13.821 19.5791 11.5476 18.5947 7.50464 18.5947C5.44214 18.5947 3.40308 18.9346 1.56323 19.5908C0.906982 19.8135 0.344482 19.5088 0.18042 18.9229C0.0163574 18.3721 0.309326 17.8213 0.93042 17.6104C2.96948 16.9307 5.33667 16.5205 7.50464 16.5205C12.8835 16.5205 15.8953 18.1611 15.8953 21.1025C15.8953 23.1416 14.3835 24.6182 12.4148 24.6182ZM21.0867 23.1416C20.7351 23.1416 20.489 22.8486 20.5359 22.4736L20.6296 21.5479L19.8679 22.0986C19.5867 22.333 19.2 22.2627 19.0359 21.9697C18.8484 21.665 18.989 21.2783 19.3289 21.1377L20.196 20.7627L19.3289 20.3994C19.0007 20.2588 18.8601 19.8955 19.0359 19.5908C19.2 19.2861 19.5867 19.2275 19.8679 19.4385L20.6296 20.001L20.5242 19.0752C20.4773 18.7002 20.7234 18.4072 21.0867 18.4072C21.45 18.4072 21.6843 18.7236 21.6375 19.0869L21.5203 20.001L22.2703 19.4502C22.5515 19.2158 22.9617 19.2861 23.1257 19.5908C23.3015 19.8955 23.1609 20.2588 22.8328 20.3877L21.9656 20.7744L22.8093 21.1377C23.1609 21.2666 23.3015 21.665 23.114 21.9697C22.9382 22.2744 22.5632 22.3213 22.282 22.0986L21.5085 21.5361L21.6257 22.4736C21.6843 22.8369 21.4382 23.1416 21.0867 23.1416Z" fill="#FFFF"/>
</svg>
